<?xml version="1.0" encoding="utf-8"?>
<!-- Generator: Adobe Illustrator 27.7.0, SVG Export Plug-In . SVG Version: 6.00 Build 0)  -->
<svg version="1.1" id="Layer_2_00000021799476802687418370000000046848372094105243_"
	 xmlns="http://www.w3.org/2000/svg" xmlns:xlink="http://www.w3.org/1999/xlink" x="0px" y="0px" viewBox="0 0 313 207.9"
	 style="enable-background:new 0 0 313 207.9;" xml:space="preserve">
<style type="text/css">
	.st0{fill:#0EB4BD;}
	.st1{fill:#0EB4BD;stroke:#000000;stroke-width:40;stroke-miterlimit:10;}
</style>
<g>
	<path class="st0" d="M65.2,179.8c-36,0-65.2-29.3-65.2-65.2s29.3-65.2,65.2-65.2c7.8,0,15.3,1.3,22.5,4c3.1,1.2,4.7,4.6,3.6,7.7
		c-1.1,3.1-4.6,4.7-7.7,3.6c-5.9-2.2-12.1-3.3-18.4-3.3C35.9,61.4,12,85.2,12,114.6c0,29.3,23.9,53.2,53.2,53.2s53.2-23.9,53.2-53.2
		c0-14.7-6.2-28.9-17-39c-2.4-2.3-2.6-6.1-0.3-8.5c2.3-2.4,6.1-2.6,8.5-0.3c13.2,12.3,20.8,29.7,20.8,47.8
		C130.5,150.6,101.2,179.8,65.2,179.8z"/>
</g>
<g>
	<path class="st0" d="M247.7,179.8c-36,0-65.2-29.3-65.2-65.2c0-20.1,9-38.7,24.8-51.2c2.6-2,6.4-1.6,8.4,1c2.1,2.6,1.6,6.4-1,8.4
		c-12.9,10.2-20.2,25.4-20.2,41.8c0,29.4,23.9,53.2,53.2,53.2S301,144,301,114.6s-23.9-53.2-53.2-53.2c-5.7,0-11.3,0.9-16.6,2.6
		c-3.1,1-6.5-0.7-7.6-3.8c-1-3.2,0.7-6.5,3.8-7.6c6.5-2.1,13.4-3.2,20.3-3.2c36,0,65.2,29.3,65.2,65.2
		C313,150.6,283.7,179.8,247.7,179.8z"/>
</g>
<g>
	<path class="st1" d="M57.4,20.6"/>
</g>
<g>
	<path class="st0" d="M124.5,118.9H65.2c-2.4,0-4.6-1.4-5.5-3.7s-0.5-4.8,1.2-6.5l58.1-60l-19.1-22H55.4c-3.3,0-6-2.7-6-6s2.7-6,6-6
		h47.3c1.7,0,3.4,0.8,4.5,2.1L131.7,45c2,2.3,1.9,5.9-0.2,8.1l-52.1,53.8h45.1c3.3,0,6,2.7,6,6S127.8,118.9,124.5,118.9z"/>
</g>
<g>
	<path class="st0" d="M148.3,158.4c-0.6,0-1.2-0.1-1.7-0.3c-3.2-1-5-4.3-4-7.5l11.9-39.5c0.8-2.5,3.1-4.3,5.7-4.3h72.7L159.2,9.6
		c-1.4-1.8-1.6-4.3-0.6-6.3c1-2,3.1-3.3,5.4-3.3h66c1.5,0,2.9,0.5,4,1.5c7.7,6.9,11.2,14.1,10.5,21.5c-1,10.6-10.4,16.4-11.5,17.1
		c-0.9,0.5-2,0.8-3.1,0.8h-19.4c-3.3,0-6-2.7-6-6s2.7-6,6-6h17.5c1.6-1.3,4.2-3.9,4.5-7.1c0.3-3.5-2.3-7-5-9.8H176l73.7,97.3
		c1.4,1.8,1.6,4.2,0.6,6.3s-3.1,3.3-5.4,3.3h-80.3L154,154.1C153.3,156.7,150.9,158.4,148.3,158.4z"/>
</g>
<g>
	<path class="st0" d="M160.3,207.9c-8.7,0-16.5-1.5-23.1-3.6c-20.4-6.4-33.4-18.9-33.9-19.4c-2.4-2.3-2.4-6.1-0.1-8.5
		s6.1-2.4,8.5-0.1c1.8,1.8,46.1,43.5,96.4-0.2c2.5-2.2,6.3-1.9,8.5,0.6c2.2,2.5,1.9,6.3-0.6,8.5
		C195.9,202.5,176.6,207.9,160.3,207.9z"/>
</g>
</svg>
