<?xml version="1.0" encoding="utf-8"?>
<!-- Generator: Adobe Illustrator 27.7.0, SVG Export Plug-In . SVG Version: 6.00 Build 0)  -->
<svg version="1.1" id="Layer_1" xmlns="http://www.w3.org/2000/svg" xmlns:xlink="http://www.w3.org/1999/xlink" x="0px" y="0px"
	 viewBox="0 0 1671 376.1" style="enable-background:new 0 0 1671 376.1;" xml:space="preserve">
<style type="text/css">
	.st0{fill:#0EB4BD;}
</style>
<path class="st0" d="M1671,246.3c-18.9-3.3-37.7-3.4-56.6,0.5c-22,4.5-41.1,15-59.4,27.5c-21.6,14.8-41.8,31.4-63.8,45.7
	c-22.6,14.8-46.5,26.8-73.2,32.3c-39,8-75.7,0.9-110.9-16.7c-27.9-13.9-52.6-32.7-77.3-51.3c-19.1-14.3-38-28.7-59.4-39.6
	c-27.9-14.1-54.7-13.6-80.5,4.9c-9.5,6.8-18.5,14.2-27,22.2c-18.3,17.3-34.9,36.2-54.1,52.6c-24.7,21-51.3,39-83.2,47
	c-51.9,13.1-95.8-1-131.1-41c-24.3-27.5-37.2-60.8-45.8-96c-5.6-22.8-9.7-45.9-16.6-68.4c-12.8-41.8-40.2-68.6-82.6-78.6
	c-36.1-8.5-67.4,2.6-94.3,27.2c-22.3,20.4-31.5,46.7-34.9,75.9c-2.8,23.8-5.1,47.7-11,71c-19,75.3-82.5,111.1-147.9,106.7
	c-43.1-2.9-78.5-22.6-107.9-53.7c-19.8-20.9-32.6-46-43.7-72.3c-6.5-15.3-12.7-30.8-21.6-45c-12.6-19.9-31.2-27-53.8-25.5
	c-25.2,1.7-46.2,12.7-65,28.8c-23,19.8-40.5,44.1-57.8,68.6c-2.3,3.3-4.8,6.4-6.8,9.9c-1.3,2.2-2.8,1.9-4.6,1.2c0-44,0-88,0-132
	c6.6-5.6,13.1-11.3,19.8-16.7c36.4-29.5,77.6-45.7,124.8-44.3c50.1,1.5,88.9,23.7,115.9,66.2c11.8,18.5,19.8,38.8,28.5,58.8
	c7.1,16.4,14.6,32.6,27.4,45.6c15.7,15.9,33.8,26.4,56.9,26.2c25.5-0.2,45-14.8,52.5-39.1c5.5-17.6,7-35.9,9.1-54.1
	c3.6-30.6,8.8-60.8,24-88.1C487,51.8,529.1,17.8,586,5.1c67-15,125.5,3.9,175.5,50c30.3,28,46.4,64.1,56.4,103.4
	c5.8,22.6,9.8,45.6,16.2,68c4.8,16.8,11.5,32.7,22.6,46.4c15,18.6,31.7,23.1,54.2,14.4c18.7-7.2,34.3-19.2,48.6-32.7
	c15.9-15,31-30.8,46.8-45.8c20-19.1,41.8-35.8,67.5-46.6c42.6-17.9,84.8-15.4,126.5,3.1c28.9,12.8,54,31.4,79.1,50.2
	c20.5,15.4,40.9,31,63.5,43.3c31.9,17.4,62.4,14.9,92.7-3.9c23-14.3,44-31.2,66-46.8c26.1-18.3,53.5-33.8,84.7-41.7
	c27.9-7,56.1-9.4,84.7-5.3C1671,189.6,1671,217.9,1671,246.3z M138.6,125.7c-5.7,0.6-11.3,0.2-16.9,1.3c-2.7,0.5-2.5,2-2.2,4
	c0.2,1.9,0.8,3.1,3.1,2.8c9.2-1.2,18.5-1.3,27.8-0.6c3.2,0.2,3.4-1.7,3.6-4c0.2-2.7-1.6-2.8-3.5-2.9
	C146.4,126.1,142.5,125.9,138.6,125.7z M1635.3,205.3c6.8,0,11.4-0.1,16.1,0c2.4,0.1,3.6-0.7,3.8-3.3c0.2-2.6-0.8-3.6-3.3-3.8
	c-9.5-0.6-18.9,0.1-28.3,0.8c-2.4,0.2-3.6,1.2-3.1,3.9c0.4,2.4,1.4,3.4,4,3.1C1628.8,205.5,1633.1,205.4,1635.3,205.3z M624.5,39.1
	c-6.4-0.5-12.5,0.6-18.6,1.3c-2.1,0.2-3.5,1-3,3.5c0.4,2.1,0.7,3.9,3.7,3.4c9.1-1.5,18.2-1.6,27.4-1.3c2.8,0.1,3.3-1.3,3.5-3.6
	c0.2-2.5-0.9-3.3-3.1-3.3C630.9,39.1,627.6,39.1,624.5,39.1z M543.8,73.1c0.3-0.1,0.7-0.2,0.9-0.4c8.2-5.7,16.8-10.6,25.9-14.8
	c2.3-1.1,0.6-2.9,0.2-4.3c-0.5-1.6-1.4-2.5-3.3-1.7c-9.3,4.1-18,9.2-26.3,15.1c-1.3,0.9-1.6,2.1-0.6,3.4
	C541.4,71.5,542,73.1,543.8,73.1z M1316.3,288.8c-2.2,0.2-2.5,2.2-3.2,3.5c-1,1.9,0.5,2.7,1.8,3.5c8.1,4.6,16.5,8.6,25.2,12
	c2,0.8,3.6,1.2,4.7-1.6c1.1-2.9,0.3-4-2.5-5c-8.1-3-15.9-6.8-23.5-11C1318,289.6,1317.1,289.2,1316.3,288.8z M768,137.6
	c-1.4,0.9-4.7,0.7-3.1,4.7c3.3,8.5,5.9,17.2,8.2,26.1c0.6,2.4,1.8,3.2,4.3,2.6c2.7-0.6,3.1-2.1,2.5-4.4c-2.5-9.1-5.2-18.2-8.6-27
	C770.7,138.4,770.3,137,768,137.6z M1588.4,211.3c-0.8-1.8-0.6-4.9-4.3-3.6c-9.3,3.1-18.2,7.1-26.9,11.6c-2.3,1.2-1.9,2.6-0.9,4.4
	c1,1.9,2,2.8,4.3,1.6c8.2-4.4,16.8-8.1,25.6-11.1C1587.5,213.8,1588.8,213.3,1588.4,211.3z M878.6,333.2c0.3-3.1,0.1-3.7-2.3-4.1
	c-9.1-1.7-17.6-5-25.5-9.8c-2.7-1.6-3.4,0.3-4.6,2c-1.3,1.8-0.9,3,0.9,4c8.7,5,17.9,8.8,27.8,10.6
	C877.9,336.4,878.5,335,878.6,333.2z M474.9,183.9c-0.6,1.6,0.5,2.6,3.1,3c2.1,0.3,3.6,0,3.9-2.5c1.2-9.4,2.8-18.7,5.1-27.9
	c0.6-2.4-0.7-3.3-2.8-3.8c-2.1-0.5-3.4-0.3-4,2.2C478,164.2,476.3,173.4,474.9,183.9z M1102.1,193.4c-0.5,0.1-1,0.2-1.5,0.3
	c-9.4,2.9-18.3,6.9-26.8,11.9c-1.9,1.1-2.1,2.3-0.9,4c1.1,1.4,1.7,3.5,4.2,2c2.1-1.3,4.3-2.5,6.5-3.6c6.1-3.1,12.3-5.7,18.9-7.7
	c2.2-0.6,3-1.9,2.2-4.1C1104.4,194.8,1104.2,193.2,1102.1,193.4z M1047.8,231.6c-0.9-1-1.8-2.4-3.1-3.4c-1.5-1.1-2.4,0.4-3.3,1.2
	c-6.7,6.2-13.3,12.5-20,18.7c-1.8,1.6-2.9,3-0.5,5.2c2.1,2,3.4,1.6,5.3-0.3c6.6-6.3,13.3-12.5,19.9-18.7
	C1046.9,233.7,1047.9,233.2,1047.8,231.6z M477,223.2c0.4-2-0.6-2.9-2.7-3.1c-1.9-0.1-3.8-0.6-4.1,2.1c-1.3,9.4-3,18.7-5.5,27.9
	c-0.7,2.7,1,3.1,2.8,3.7c2.2,0.8,3.3,0.2,4-2.1C474,242.4,475.5,232.9,477,223.2z M781.9,206.8c2.4,9.5,4.8,19.1,7.1,28.6
	c0.6,2.4,2.2,2,3.9,1.6c1.7-0.4,3.4-0.9,2.8-3.2c-2.3-9.5-4.7-19.1-7-28.6c-0.6-2.4-2.1-2.1-3.9-1.7
	C783,203.9,781.6,204.5,781.9,206.8z M1141.7,189.2c-1.7-0.2-3.5-0.1-3.7,2.8c-0.2,2.7,0.6,3.9,3.4,4.1c8.8,0.8,17.4,2.4,25.8,5.4
	c2.6,0.9,3.6,0,4.4-2.2c1-2.5,0.1-3.6-2.3-4.4C1160.5,192,1151.4,190.3,1141.7,189.2z M498.1,122.7c2.4,0,2.6-1.5,3.2-2.6
	c4.5-7.6,9.4-14.9,15.3-21.5c2.1-2.3,1.3-3.5-0.5-5.2c-2.2-2.1-3.4-0.7-4.8,0.9c-6.1,7.1-11.4,14.7-16,22.8
	C493.7,119.9,495.6,122.8,498.1,122.7z M280.4,276.2c-0.5-0.8-1-1.6-1.6-2.4c-5.4-7-10.1-14.4-14.2-22.2c-1.1-2.1-2.3-3.1-4.7-1.7
	c-1.4,0.9-3.3,1.4-2.1,3.7c4.6,9,10,17.6,16.4,25.5c0.8,0.9,1.7,1.8,2.9,0.8C278.4,278.9,280.2,278.3,280.4,276.2z M806.4,267.7
	c-3,0.1-4.8,2.6-3.5,5.3c4.1,8.6,9,16.6,14.5,24.4c1.5,2,2.8,2.2,4.9,0.6c2.2-1.6,2.1-2.8,0.6-4.8c-5.3-7.2-9.9-14.9-13.9-23
	C808.6,268.9,808.2,267.5,806.4,267.7z M1445.6,301.3c0.2-0.1,0.4-0.1,0.6-0.2c9.4-4.6,18.4-10,27-16c1.8-1.2,0.3-2.7-0.5-3.9
	c-0.8-1.2-1.7-2.8-3.5-1.6c-8.3,5.5-16.8,10.7-25.7,15.3c-1.6,0.8-1.3,2.1-0.6,3.4C1443.6,299.5,1443.7,301.2,1445.6,301.3z
	 M944.8,320.9c0.2-2.9-2.9-4.9-5.6-3.5c-7.9,3.9-16,7.4-24.5,9.7c-2.7,0.7-3.5,1.7-2.9,4.5c0.8,3.2,2.6,2.8,4.9,2.1
	c9-2.5,17.5-6.2,25.8-10.4C943.5,322.7,944.7,322.3,944.8,320.9z M248.5,217c-0.1-0.2-0.1-0.4-0.1-0.6c-4.3-9.4-8.4-18.8-12.8-28.1
	c-1.1-2.3-2.9-0.6-4.3,0.1c-1.5,0.6-2.5,1.5-1.6,3.4c4.1,8.9,8.1,17.8,12.2,26.7c0.6,1.4,1.6,2.1,3.2,1.3
	C246.4,219.2,248.4,219.2,248.5,217z M1231.9,230.4c0.2-0.9-0.3-1.6-1-2.1c-8.3-5.9-16.7-11.5-25.5-16.6c-2.2-1.3-2.8,0.8-3.7,2.1
	c-1.1,1.6-1.2,2.9,0.7,4.1c8,5.1,15.9,10.3,23.8,15.4C1228.6,234.9,1231.7,233.2,1231.9,230.4z M1260.2,250.2
	c-1.9,0.7-2.6,2.3-3.4,3.6c-1,1.6,0.4,2.4,1.5,3.2c7.5,5.5,15,11,22.4,16.6c2,1.5,3.3,1.6,4.8-0.7c1.4-2.1,1.4-3.3-0.8-4.9
	c-7.4-5.3-14.7-10.8-22.1-16.2C1261.9,251.3,1261.1,250.8,1260.2,250.2z M673,46.3c-2.6,0-2.4,2-3,3.5c-0.8,2.2,0.2,2.9,2.1,3.5
	c8.6,2.8,16.8,6.3,24.7,10.7c2.4,1.4,3.7,1.1,5.2-1.4c1.7-2.9,0-3.8-2.1-4.9c-8-4.1-16.1-7.9-24.7-10.7
	C674.5,46.7,673.7,46.5,673,46.3z M1502.6,263.8c0.4-0.2,0.9-0.3,1.3-0.6c8.1-5.9,16.1-11.7,24.2-17.6c2-1.5,0.8-2.8-0.2-4.2
	c-1-1.5-2-2.7-4-1.2c-7.9,5.8-15.8,11.6-23.8,17.4c-1,0.8-1.8,1.6-1,2.9C1500,261.7,1500.6,263.5,1502.6,263.8z M1388.1,316.7
	c7.2,0,14.2-0.9,21.2-2.4c2.2-0.5,3.3-1.3,2.6-3.7c-0.6-2-1-3.8-3.9-3.2c-8.8,2-17.7,2.7-26.7,2.2c-3-0.1-3.7,1.1-3.9,3.7
	c-0.3,3,1.6,3.3,3.7,3.3C1383.4,316.7,1385.7,316.7,1388.1,316.7z M214.9,157.9c-0.4-0.6-0.7-1.3-1.3-1.9
	c-6.9-7.4-14.9-13.3-23.6-18.2c-2.2-1.3-3.2-0.2-4.2,1.7c-1,1.9-1.2,3.2,1.1,4.4c8.1,4.3,15.3,9.9,21.6,16.7
	c0.8,0.8,1.6,1.9,2.9,1.1C212.8,160.8,214.1,159.8,214.9,157.9z M432.2,310.9c0.5-0.3,1.2-0.7,1.9-1.2c8.3-5.8,15-13,20.9-21.2
	c1.4-1.9,0.8-2.9-0.9-4c-1.6-1-3-2.4-4.6-0.1c-5.5,7.9-12.1,14.5-19.8,20.2c-1.1,0.8-1.6,1.8-0.6,2.9
	C429.9,308.7,430.2,310.4,432.2,310.9z M333.2,317.3c0.2-2.1-1.5-2.5-2.8-3c-8-3.3-15.5-7.6-22.5-12.6c-2.5-1.8-3.8-1.5-5.6,0.9
	c-1.9,2.6-0.1,3.5,1.5,4.7c7.6,5.4,15.8,9.8,24.3,13.6C332.4,322.8,332.2,319.4,333.2,317.3z M59.5,158.6c0.3-0.1,0.7-0.2,0.9-0.4
	c8.3-5.6,17-10.4,26.1-14.5c2.4-1.1,0.9-2.8,0.4-4.2c-0.6-2-1.8-2.7-3.8-1.8c-9.2,4-17.8,8.9-26.1,14.5c-1.4,1-1.6,2.1-0.7,3.3
	C57.4,156.7,57.7,158.4,59.5,158.6z M974.4,302c0.3-0.2,0.7-0.3,0.9-0.5c8.1-6.4,15.8-13.3,23.1-20.6c1.8-1.8-0.1-2.9-1.2-4.1
	s-2.2-2.1-3.8-0.5c-7,6.9-14.3,13.4-22,19.6c-1,0.8-1.6,1.7-0.6,2.9C971.8,300,972.4,301.8,974.4,302z M375.8,329.6
	c7.2,0,14.2-1.3,21.2-2.8c2.2-0.5,3.2-1.5,2.6-3.8c-0.6-2.1-1.4-3.7-4.1-3c-8.8,2.3-17.7,2.9-26.7,2.8c-2.5,0-3.5,0.9-3.6,3.5
	c-0.1,2.9,1.5,3.4,3.7,3.4C371.2,329.7,373.5,329.6,375.8,329.6z M753.6,105.8c-0.2-0.4-0.2-0.7-0.4-1c-6.1-8.6-12.8-16.6-20.7-23.6
	c-2-1.8-2.9,0.6-4,1.5c-1.3,1.1-1.8,2.3-0.2,3.8c7,6.6,13.4,13.8,19,21.7c0.9,1.3,2.1,1.6,3.4,0.5
	C751.8,107.9,753.5,107.6,753.6,105.8z M32.8,180c-0.4-1.5-1.6-2.5-2.8-3.4c-1.8-1.3-2.8,0.4-3.7,1.3c-6.6,6.5-12.9,13.3-18.9,20.4
	c-1.8,2.1-1.3,3.2,0.6,4.8c2,1.7,3.1,1.4,4.8-0.6c5.9-6.7,12.1-13.2,18.1-19.8C31.7,182,32.8,181.4,32.8,180z"/>
</svg>
